<svg version="1.1" id="Layer_1" xmlns="http://www.w3.org/2000/svg" x="0" y="0" viewBox="0 0 70.6 12.1" style="enable-background:new 0 0 70.6 12.1" xml:space="preserve"><style>.st0{fill:#463087}</style><path class="st0" d="M9.8 9.1c-.4.8-1.4.7-2 .2-.4-.2-.8-.5-1.2-.8-.3.4-.5.7-.8 1-2 2-3.5 2.5-4.6 2.4-.8-.1-1.2-.7-1.2-1.2s.5-1.2 1.3-1.4c1-.3 2.3-1 3.1-2.2-.8-.4-1.3-.7-1.5-.7-.8-.3-1.2-1-.9-1.7.2-.7.9-1 1.8-.8.4.1 1 .4 1.8.8.4-1.2.8-2.4 1-2.9.3-.9 1-1.1 1.7-.9.5.2 1 .8.8 1.9-.1.6-.5 2-1.1 3.4.3.2.7.5.9.7.9.8 1.3 1.4.9 2.2zM17.9 7.7c-.1 0-.2.1-.3.1-.4 0-.8-.2-1-.5-.2-.4-.4-1.1-.6-1.6 0-.3 0-.6.1-.8.1-.2.3-.3.6-.4h.3c.5 0 .8.4.9.7.2.5.5 1.1.5 1.6.1.4-.1.7-.5.9zm5.8-1.1c-.3.8-1.3 3.6-3.9 5-.3.1-.5.2-.7.2-.3 0-.6-.1-.8-.4-.1-.2-.2-.4-.2-.7.1-.3.3-.6.7-.9l.1-.1c.9-.6 2.1-1.3 2.9-3.6.2-.7.5-1.3 1.2-1.3h.2c.2 0 .4.2.5.3.2.4.2.9 0 1.5zm-5.3-1.3c-.1-.3-.1-.6.1-.8.1-.2.3-.3.6-.4h.3c.5 0 .8.4.9.7.2.5.5 1.1.5 1.6.1.5-.1.7-.5.9-.1 0-.2.1-.3.1-.4 0-.8-.2-1-.5-.3-.5-.5-1.2-.6-1.6zM39.6 10.3c.1.8-.4 1.4-1.5 1.5-1.1.1-4.5.4-5.8-2-.7-1.3-.6-2.6-.6-3.7h-.2c-.6 0-2.3.6-2.6-.7-.3-1.1.7-1.6 2.6-1.8h.1V2c0-1 .4-1.6 1.2-1.6.9-.1 1.4.5 1.4 1.3v1.5c1.1-.2 3.6-.5 3.9-.6.8-.1 2.1.2 2 1.4 0 1.2-.7 2.3-1.2 2.7-.5.3-1.6.2-1.7-.6 0-.8.3-1 .1-1-.2 0-2.2.4-2.8.5-.1 0-.2 0-.4.1 0 .8 0 2.4.1 2.7.8 1.4 3 .7 3.9.8 1.1.2 1.4.3 1.5 1.1zM54.7 6c0 .3-.1.5-.2.7-.4.4-1.1.5-1.7.5h-7.1c-1.2-.1-1.4-.7-1.4-1.1 0-.8.6-1.3 1.5-1.4H53c.8.2 1.6.3 1.7 1.3zM60.6 6.7c-1-.1-1.4-.4-1.4-1.1s.7-1.3 1.8-1c.8.2 2.3.4 2.6.9.3.4.1 1.5-.8 1.5-.8-.1-1.4-.2-2.2-.3zm-.8-4.9c.2-.9.9-1 2.1-.8 1.2.3 2.5.8 2.6 1.5.1.6-.2 1.3-1 1.3s-1.6-.3-2.3-.5c-1-.2-1.6-.6-1.4-1.5zm9.1 5.1c-.3.7-1.1 2.2-2.7 3.4-1.4 1-2.3 1.3-3.1 1.6-1.2.4-2.3.2-2.6-.2-.5-.5-.5-1.8 1.2-2.3 1.6-.4 3.3-1.2 4.5-2.9 1-1.3 1.4-3.4 2.8-2.6 1.3.7.2 2.3-.1 3zM67.2 2c-.2-.4-.2-1 .2-1.2.4-.2.7.1 1.2.7.7.9.7 1.4.2 1.6-.5.2-1.1-.3-1.6-1.1zm3 .3c-.6.3-1-.3-1.4-1-.2-.4-.3-1 .2-1.2.4-.2.8.1 1.3.8.4.7.4 1.1-.1 1.4z"/></svg>