<svg version="1.1" id="Layer_1" xmlns="http://www.w3.org/2000/svg" x="0" y="0" viewBox="0 0 50 50" style="enable-background:new 0 0 50 50" xml:space="preserve"><style>.st2{fill:#dd3353}</style><path d="M38.2 24.3c-.2-.9-.8-1.7-1.6-2.3-.1-.2-.2-.3-.3-.4.5-.8.7-1.7.5-2.7-.2-.9-.8-1.7-1.6-2.3-.3-.4-.6-.8-1.1-1.1-.6-.4-1.3-.6-2-.6H32c-.3-.4-.6-.8-1.1-1.1-.3-.4-.6-.8-1.1-1.1-.6-.4-1.3-.6-2-.6-1.2 0-2.4.6-3 1.6-.1.2-.2.3-.3.5l-.1-.1c-.6-.4-1.3-.6-2-.6-1.2 0-2.4.6-3 1.6v.1c-1.1.5-2.2 1.1-3.1 1.8-2.2 1.9-3.5 4.4-3.5 7 0 2.4 1 4.8 2.9 6.6-.2.8-.7 1.7-1.6 2.7-.5.5-.6 1.3-.3 1.9.2.5.6.8 1 1 0 .1 0 .1.1.1.3.6.9 1.1 1.6 1.1 2.2 0 6.3-.4 8.7-2.4h.1c2.8 0 5.5-.9 7.7-2.5.7-.3 1.3-.8 1.7-1.4.1-.2.3-.4.3-.7.6-.8 1-1.6 1.3-2.5.4-.3.8-.6 1.1-1.1.9-.6 1-1.5.8-2.5z" style="fill:#222"/><path d="M36.2 23.3c-.2-.7-.7-1.3-1.3-1.7-.2-.1-.4-.2-.7-.3v-.1c-.2-.4-.1-.8.1-1.1.4-.6.6-1.3.5-2-.1-.7-.5-1.4-1.2-1.8-.4-.3-.9-.4-1.4-.4-.2 0-.4 0-.6.1-.5.1-1-.2-1.1-.7-.1-.7-.5-1.3-1.1-1.6-.6-.4-1.2-.5-1.9-.4-.8.1-1.4.6-1.8 1.3-.2.3-.4.7-.5 1h-.5c-.2-.2-.4-.4-.7-.5-.4-.3-.9-.4-1.4-.4-.6 0-1.2.2-1.7.6-.2.2-.4.4-.5.6-.3.4-.6.7-1.1.9-3.1 1.5-5.1 4.3-5.1 7.5 0 2.3 1.1 4.4 2.8 5.9.1.1.2.3.2.5-.1 1-.6 2.2-1.9 3.6-.3.4-.1 1 .4 1 2.1 0 6-.3 8.1-2.3.1-.1.3-.2.4-.2h.3c2.4 0 4.6-.7 6.4-1.8.2-.1.3-.2.5-.2.7-.1 1.3-.5 1.6-1.1.3-.4.4-.8.5-1.3.2-.3.4-.7.6-1 .3-.5.7-1 1.2-1.4.2-.2.4-.4.6-.7.3-.5.5-1.2.3-2z" style="fill:#f9f4e9"/><path class="st2" d="M22.6 15.9c.3 0 .5.1.8.2 1.8 1.2 2.4 3.6 1.2 5.5-.6.9-1.5 1.5-2.5 1.7-.3.1-.6.1-.8.1-.7 0-1.5-.2-2.1-.6-.7-.4-.8-1.3-.4-2 .3-.4.7-.6 1.2-.6.3 0 .5.1.8.2.2.1.4.2.6.2h.2c.3-.1.5-.2.7-.5.2-.3.2-.5.2-.8-.1-.3-.2-.5-.5-.7-.7-.4-.8-1.3-.4-2 0-.5.5-.7 1-.7M27.9 14.4c.3 0 .5.1.8.2.7.4.8 1.3.4 2-.2.3-.2.5-.2.8.1.3.2.5.5.7.2.1.4.2.6.2h.2c.3-.1.5-.2.7-.5.3-.4.7-.6 1.2-.6.3 0 .5.1.8.2.7.4.8 1.3.4 2-.6.9-1.5 1.5-2.5 1.7-.3.1-.6.1-.8.1-.7 0-1.5-.2-2.1-.6-1.8-1.2-2.4-3.6-1.2-5.5.3-.5.8-.7 1.2-.7M32.3 22.2c.7 0 1.5.2 2.1.6.7.4.8 1.3.4 2-.3.4-.7.6-1.2.6-.3 0-.5-.1-.8-.2-.2-.1-.4-.2-.6-.2H32c-.3.1-.5.2-.7.5-.3.5-.2 1.2.4 1.5.7.4.8 1.3.4 2-.2.3-.5.5-.9.6h-.3c-.3 0-.5-.1-.8-.2-1.8-1.2-2.4-3.6-1.2-5.5.8-1.1 2.1-1.7 3.4-1.7M23.4 24.3c.7 0 1.5.2 2.1.6 1.8 1.2 2.4 3.6 1.2 5.5-.2.3-.5.5-.9.6h-.3c-.3 0-.5-.1-.8-.2-.7-.4-.8-1.3-.4-2 .2-.3.2-.5.2-.8-.1-.3-.2-.5-.5-.7-.2-.1-.4-.2-.6-.2h-.2c-.3.1-.5.2-.7.5-.3.4-.7.6-1.2.6-.3 0-.5-.1-.8-.2-.7-.4-.8-1.3-.4-2 .7-1 2-1.7 3.3-1.7"/></svg>