<svg id="Layer_1" xmlns="http://www.w3.org/2000/svg" viewBox="0 0 50 50"><defs><style>.cls-1{fill:#639fab}</style></defs><path class="cls-1" d="M37.45 31.97v-3.86c0-.19-.05-.26-.24-.31a4.438 4.438 0 0 1-3.26-4.29c0-1.98 1.33-3.71 3.27-4.26.19-.05.24-.13.24-.32v-4.74c0-.29.06-.55.27-.76.29-.28.63-.36 1.01-.22.36.13.6.48.6.9v4.67q0 .4.38.52c1.86.59 3.13 2.31 3.12 4.25a4.41 4.41 0 0 1-3.18 4.22c-.27.08-.33.19-.32.45.01 2.54 0 5.08 0 7.63 0 .69-.57 1.15-1.2.98-.41-.12-.68-.47-.68-.94v-3.91zm-1.62-8.45c0 1.41 1.15 2.55 2.55 2.55 1.41 0 2.55-1.14 2.55-2.55 0-1.42-1.15-2.57-2.57-2.56-1.41 0-2.55 1.15-2.54 2.56zM10.67 15.68v-1.62c0-.47.37-.85.83-.91.44-.05.87.23 1 .66.04.12.04.26.05.39 0 .42.01.83 0 1.25 0 .19.05.26.24.32 1.98.56 3.31 2.35 3.27 4.38-.05 1.94-1.37 3.65-3.24 4.16-.2.06-.26.14-.26.35v11.07c0 .15 0 .31-.04.46a.92.92 0 0 1-.98.68.953.953 0 0 1-.86-.89V24.73c0-.26-.06-.37-.32-.45a4.422 4.422 0 0 1-3.18-4.25c0-1.99 1.32-3.72 3.26-4.27.08-.02.15-.04.24-.07zm3.49 4.35c0-1.41-1.14-2.55-2.55-2.56-1.42 0-2.56 1.14-2.56 2.57 0 1.41 1.15 2.55 2.56 2.54 1.41 0 2.55-1.15 2.55-2.55zM23.76 24.57V14.25c0-.15 0-.3.04-.44.12-.43.55-.71.99-.67.44.05.79.4.84.85.01.11 0 .21 0 .32v10c0 .21.06.29.26.34a4.4 4.4 0 0 1 3.23 4.28c0 1.98-1.31 3.7-3.24 4.26-.08.02-.15.05-.25.08v2.59c0 .58-.42 1-.96.99-.53 0-.92-.43-.92-1v-2.37c0-.17-.04-.24-.21-.29-2-.57-3.3-2.29-3.3-4.31 0-1.99 1.34-3.7 3.33-4.27.05-.02.11-.04.17-.06zm3.49 4.37c0-1.42-1.15-2.57-2.56-2.57-1.41 0-2.54 1.15-2.54 2.56a2.554 2.554 0 0 0 5.11 0z"/></svg>