<svg xmlns="http://www.w3.org/2000/svg" viewBox="0 0 50 50" style="enable-background:new 0 0 50 50" xml:space="preserve"><path d="m35.2 20.1.2-.4c.6-1 .7-2.1.4-3.2-.3-.9-.8-1.8-1.6-2.3-.3-.5-.8-.9-1.3-1.2-.6-.4-1.4-.6-2.1-.6-1.5 0-2.9.8-3.7 2.1l-.1.2c-.8-.2-1.7-.2-2.6-.2-3 0-5.9 1-8 2.8-2.2 1.9-3.4 4.3-3.4 7 0 2.4 1 4.8 2.9 6.6-.2.8-.7 1.7-1.6 2.7-.5.5-.6 1.3-.3 1.9.2.5.6.8 1 .9 0 .1 0 .1.1.1.3.6.9 1 1.6 1 2.2 0 6.3-.4 8.7-2.4h.1c3 0 5.9-1 8-2.8 2.2-1.9 3.4-4.3 3.4-7 .1-1.8-.5-3.7-1.7-5.2z" style="fill:#222"/><path d="m33 19.5.7-1.2c.4-.8.6-1.7.3-2.5-.2-.9-.8-1.6-1.6-2-.5-.3-1.1-.4-1.7-.4-1.2 0-2.3.6-2.9 1.7l-.6 1c-.9-.2-1.9-.3-2.9-.3-5.7 0-10.3 3.9-10.3 8.6 0 2.3 1.1 4.4 2.8 5.9.1.1.2.3.2.5-.1 1-.6 2.2-1.9 3.6-.3.4-.1 1 .4 1 2.1 0 6-.3 8.1-2.3.1-.1.3-.2.4-.2h.3c5.7 0 10.3-3.9 10.3-8.6.2-1.8-.5-3.4-1.6-4.8z" style="fill:#f9f4e9"/><path d="M30.8 14.5c.4 0 .7.1 1.1.3 1 .6 1.4 1.9.8 2.9l-6.8 11.9c-.3.5-.8.9-1.4 1h-.4c-.5 0-.9-.2-1.3-.4l-5.7-4.4c-.9-.7-1.1-2.1-.4-3 .4-.6 1.1-.8 1.7-.8.5 0 .9.1 1.3.4l3.8 2.9 5.6-9.8c.2-.6 1-1 1.7-1" style="fill:#8eb897"/></svg>